<svg width="101" height="95" xmlns="http://www.w3.org/2000/svg" xmlns:xlink="http://www.w3.org/1999/xlink" xml:space="preserve" overflow="hidden"><defs><clipPath id="clip0"><rect x="476" y="446" width="101" height="95"/></clipPath><clipPath id="clip1"><rect x="476" y="446" width="101" height="95"/></clipPath><clipPath id="clip2"><rect x="477" y="447" width="100" height="94"/></clipPath><clipPath id="clip3"><rect x="477" y="447" width="100" height="94"/></clipPath></defs><g clip-path="url(#clip0)" transform="translate(-476 -446)"><g clip-path="url(#clip1)"><g clip-path="url(#clip2)"><g clip-path="url(#clip3)"><g><path d="M42.7777 34.538 41.8896 32.2091C42.7201 31.8894 43.5278 31.5135 44.3073 31.0842 44.9435 30.7351 45.4594 30.2019 45.7875 29.5546 45.9843 29.105 46.0592 28.6115 46.0046 28.1238 45.99 27.8883 45.9435 27.6559 45.8664 27.433L48.9156 26.3475 57.5501 44.6823 53.1983 46.3796 47.3663 32.8308ZM62.8394 23.6832C65.0238 25.1232 66.839 27.0567 68.1385 29.3277 69.9739 32.219 70.941 34.7452 70.9607 36.8372 70.9804 38.9292 69.668 40.6265 67.0135 41.6528 64.7088 42.7228 62.01 42.4939 59.9184 41.0508 57.6525 39.2642 55.8627 36.9457 54.7081 34.3011 53.2871 31.3407 52.7345 29.0514 52.9615 27.2455 53.1885 25.4397 54.4713 24.216 56.7804 23.3871 58.7377 22.5463 60.9734 22.6555 62.8394 23.6832ZM61.8526 37.4984C62.6619 38.4877 64.0148 38.8458 65.2077 38.3865 66.2609 38.1058 66.8871 37.0244 66.6064 35.9712 66.5857 35.8933 66.5601 35.8167 66.53 35.7419 66.013 33.9787 65.2488 32.2976 64.2604 30.7487 63.4164 29.184 62.3567 27.7456 61.1125 26.4758 60.3439 25.6853 59.1711 25.4429 58.1521 25.864 57.1736 26.0945 56.5538 27.059 56.7508 28.0448 57.1216 29.7237 57.7578 31.3327 58.6356 32.8111 59.4757 34.5136 60.5484 36.0912 61.823 37.4984ZM93.4597 39.472 87.5389 29.604C87.3287 29.2443 87.0063 28.9636 86.6212 28.8047L35.3077 7.09508C34.3578 6.69026 33.2564 7.08607 32.7815 8.00294L6.13789 59.3165C5.79956 59.9699 5.85281 60.7573 6.27604 61.3592L13.1836 71.2271C13.4037 71.5372 13.7087 71.7771 14.0619 71.9179L65.3754 92.6407C66.3223 93.0242 67.4053 92.6218 67.872 91.7131L93.5288 41.3863C93.8378 40.7791 93.8117 40.0554 93.4597 39.472ZM39.3831 46.5177 35.8011 11.585 83.6707 31.8144 69.6187 50.2675ZM10.1936 60.0467 34.0742 14.0421 37.4984 46.9815 19.5189 63.9742 10.2331 60.1059ZM16.1144 68.4542 12.3449 63.1551 19.2524 66.0366 44.2875 79.8518ZM65.4248 87.8251 65.1781 88.3086 59.4349 85.9897 21.4037 64.9215 38.8207 48.4025 68.9772 52.1721ZM67.8918 82.9799 71.0495 51.6885 85.1114 33.1959 89.5125 40.5377Z" fill="#000000" fill-rule="nonzero" fill-opacity="1" transform="matrix(1.01338 0 0 1 477 447)"/><text fill="#000000" fill-opacity="1" font-family="Helvetica Neue,Helvetica Neue_MSFontService,sans-serif" font-style="normal" font-variant="normal" font-weight="700" font-stretch="normal" font-size="5" text-anchor="start" direction="ltr" writing-mode="lr-tb" unicode-bidi="normal" text-decoration="none" transform="matrix(1 0 0 0.986799 477 560)">Created by Lonnie Tapscott</text><text fill="#000000" fill-opacity="1" font-family="Helvetica Neue,Helvetica Neue_MSFontService,sans-serif" font-style="normal" font-variant="normal" font-weight="700" font-stretch="normal" font-size="5" text-anchor="start" direction="ltr" writing-mode="lr-tb" unicode-bidi="normal" text-decoration="none" transform="matrix(1 0 0 0.986799 477 565)">from the Noun Project</text></g></g></g></g></g></svg>