<svg width="101" height="95" xmlns="http://www.w3.org/2000/svg" xmlns:xlink="http://www.w3.org/1999/xlink" xml:space="preserve" overflow="hidden"><defs><clipPath id="clip0"><rect x="588" y="446" width="101" height="95"/></clipPath><clipPath id="clip1"><rect x="588" y="446" width="101" height="95"/></clipPath><clipPath id="clip2"><rect x="589" y="447" width="100" height="94"/></clipPath><clipPath id="clip3"><rect x="589" y="447" width="100" height="94"/></clipPath></defs><g clip-path="url(#clip0)" transform="translate(-588 -446)"><g clip-path="url(#clip1)"><g clip-path="url(#clip2)"><g clip-path="url(#clip3)"><g><path d="M34.4294 31.7059 32.4558 29.5448C33.3254 28.9982 34.1532 28.388 34.9327 27.7192 35.5391 27.2173 35.951 26.5191 36.0971 25.7456 36.16 25.228 36.06 24.7037 35.8109 24.2456 35.7033 24.0053 35.5603 23.7824 35.3866 23.5845L38.4852 21.7096 55.1818 37.6069 51.0668 40.6265 39.2253 28.6665ZM54.491 32.0118C53.82 30.5414 53.8003 28.5678 54.422 26.091 54.8031 24.7599 55.0543 23.395 55.1719 22.0155 55.1612 20.983 54.6729 20.0137 53.8496 19.3906 53.1927 18.8558 52.4001 18.5142 51.5602 18.4038 50.7243 18.2912 49.8754 18.4763 49.1623 18.9268 48.1064 19.5682 47.7315 20.3083 48.0472 21.1471 48.4224 21.9073 48.9537 22.5798 49.6064 23.1207L46.0736 25.3607C45.009 24.4207 44.2008 23.2254 43.7251 21.8872 43.1922 19.9629 44.1198 18.315 46.4782 16.9532 48.1607 15.9118 50.1159 15.3964 52.0931 15.473 54.011 15.5576 55.8526 16.2486 57.3528 17.4466 58.4713 18.2278 59.2619 19.3944 59.5731 20.7228 59.7276 21.8673 59.6538 23.0311 59.356 24.147L58.981 25.9133C58.7909 26.7071 58.646 27.511 58.5468 28.3211 58.5008 28.8111 58.5579 29.3052 58.7145 29.7717L66.382 24.3641 69.7371 26.9593 57.3034 36.0872C56.0793 34.9506 55.1194 33.5595 54.491 32.0118ZM91.6243 46.7052 83.1477 25.9824C83.014 25.6498 82.7923 25.3598 82.5063 25.1436L59.9184 8.22004C59.488 7.91881 58.9553 7.80161 58.4382 7.89439L27.3639 12.5521C26.9146 12.6222 26.5033 12.8453 26.1995 13.1836L16.7756 23.5352C16.6177 23.7133 16.4909 23.9168 16.4006 24.1371L6.05895 50.5044C5.90218 50.938 5.90218 51.4128 6.05895 51.8464L9.35485 61.7144C9.44344 61.9637 9.57725 62.1945 9.74957 62.3953L30.4724 85.9305C30.6063 86.0817 30.7628 86.2115 30.9361 86.3153L37.9918 90.5487C38.2897 90.7295 38.6301 90.8282 38.9786 90.8348 39.1001 90.8446 39.2222 90.8446 39.3437 90.8348L64.7636 86.1278C64.9586 86.0858 65.1476 86.0195 65.3261 85.9305L81.3122 77.444C81.7704 77.2105 82.123 76.812 82.299 76.3289L91.6736 48.0768C91.8218 47.6285 91.8043 47.1418 91.6243 46.7052ZM78.9439 27.4231 55.7245 46.3796 25.0548 34.607 29.2586 16.2624 58.2211 11.8416ZM19.9531 25.9232 26.7324 18.4729 22.9529 34.9031 11.9797 57.2343 10.0061 51.2543ZM12.9369 60.1059 12.8284 59.9184 24.3838 36.5116 55.0239 48.1755 59.504 75.9243 33.3538 83.2168 33.1762 83.1082ZM63.7275 82.2892 39.3338 86.8383 35.6826 84.6476 60.7967 77.6512 75.2039 76.25ZM78.9439 73.8718 61.4776 75.6184 56.9679 47.8597 80.1182 29.002 87.6968 47.5242Z" fill="#000000" fill-rule="nonzero" fill-opacity="1" transform="matrix(1.01338 0 0 1 589 447)"/><text fill="#000000" fill-opacity="1" font-family="Helvetica Neue,Helvetica Neue_MSFontService,sans-serif" font-style="normal" font-variant="normal" font-weight="700" font-stretch="normal" font-size="5" text-anchor="start" direction="ltr" writing-mode="lr-tb" unicode-bidi="normal" text-decoration="none" transform="matrix(1 0 0 0.986799 589 560)">Created by Lonnie Tapscott</text><text fill="#000000" fill-opacity="1" font-family="Helvetica Neue,Helvetica Neue_MSFontService,sans-serif" font-style="normal" font-variant="normal" font-weight="700" font-stretch="normal" font-size="5" text-anchor="start" direction="ltr" writing-mode="lr-tb" unicode-bidi="normal" text-decoration="none" transform="matrix(1 0 0 0.986799 589 565)">from the Noun Project</text></g></g></g></g></g></svg>