<svg width="101" height="95" xmlns="http://www.w3.org/2000/svg" xmlns:xlink="http://www.w3.org/1999/xlink" xml:space="preserve" overflow="hidden"><defs><clipPath id="clip0"><rect x="701" y="446" width="101" height="95"/></clipPath><clipPath id="clip1"><rect x="701" y="446" width="101" height="95"/></clipPath><clipPath id="clip2"><rect x="702" y="447" width="100" height="94"/></clipPath><clipPath id="clip3"><rect x="702" y="447" width="100" height="94"/></clipPath></defs><g clip-path="url(#clip0)" transform="translate(-701 -446)"><g clip-path="url(#clip1)"><g clip-path="url(#clip2)"><g clip-path="url(#clip3)"><g><path d="M90.6868 60.5598 76.8716 19.1143C76.6689 18.5007 76.1787 18.0252 75.5592 17.8413L39.0476 6.98654C38.3473 6.77565 37.5878 6.96933 37.074 7.4898L6.48327 38.0806C5.95067 38.6124 5.76695 39.4009 6.00961 40.1134L20.8116 83.5325C21.0512 84.25 21.6798 84.7675 22.4299 84.8647L57.9547 89.7987 58.2211 89.7987C58.6962 89.7984 59.1552 89.6267 59.5138 89.3152L90.1046 62.6716C90.7074 62.1499 90.9371 61.3167 90.6868 60.5598ZM24.1174 80.9175 31.1828 46.4289 63.8262 79.9801ZM76.2401 31.2717 31.9032 43.0343 38.87 11.7034ZM29.8605 43.2317 11.0127 39.1364 36.3931 13.8152ZM65.5037 78.865 32.4756 44.929 77.3453 33.0183 77.4637 33.3637 65.6221 78.7564ZM75.9835 28.9033 45.8664 13.1146 73.4968 21.3149ZM10.5193 41.0508 29.4263 45.1658 22.8543 77.2269ZM57.5995 85.743 35.0314 82.6148 61.9019 82.003ZM68.3062 76.4276 78.6084 36.7977 86.5028 60.5598ZM41.0903 35.0314C41.294 33.6162 41.9319 32.2991 42.9159 31.2618 43.5994 30.4718 44.2073 29.6194 44.7316 28.7158 45.0661 28.0709 45.0915 27.3094 44.8007 26.6436 44.5772 26.1118 44.1855 25.6681 43.6856 25.3805 43.1617 25.0916 42.5461 25.0173 41.9686 25.1732 41.0804 25.3706 40.6068 25.8048 40.5278 26.4659 40.5269 27.0566 40.6478 27.6412 40.8831 28.183L37.9227 28.8737C37.5336 27.9386 37.3909 26.9193 37.5082 25.9133 37.7648 24.4233 38.8897 23.4759 40.8633 23.0418 42.2444 22.6876 43.7034 22.7951 45.0178 23.3477 46.2206 23.8678 47.1828 24.8229 47.7117 26.0219 48.1447 26.9 48.219 27.9122 47.919 28.8441 47.6127 29.6676 47.1615 30.4296 46.5868 31.094L45.748 32.1598C45.2151 32.8176 44.8599 33.3012 44.6823 33.6104 44.5365 33.901 44.443 34.215 44.406 34.538L50.9386 32.8209 52.0339 35.2386 41.5344 38.0904C41.1485 37.1197 40.9964 36.0718 41.0903 35.0314ZM55.8232 21.5221C57.2696 22.75 58.4256 24.2835 59.2079 26.012 60.1451 27.5894 60.6457 29.3876 60.6585 31.2223 60.5598 32.6038 59.6125 33.5512 57.8264 34.0347 56.224 34.5687 54.4606 34.2649 53.1293 33.2255 51.6009 31.9011 50.4073 30.2341 49.6459 28.3606 48.7741 26.7786 48.3638 24.9836 48.4617 23.1799 48.6591 21.8971 49.636 21.0682 51.4221 20.6833 52.94 20.2708 54.5634 20.5802 55.8232 21.5221ZM54.5798 31.0546C55.0865 31.7505 55.9662 32.0672 56.8001 31.8539 57.492 31.7288 57.9514 31.0666 57.8264 30.3748 57.8167 30.321 57.8035 30.2679 57.7869 30.2158 57.5154 28.9862 57.0737 27.8005 56.4745 26.6929 55.9442 25.51 55.2607 24.4019 54.4417 23.397 53.9419 22.7862 53.1373 22.5142 52.3694 22.6964 51.6985 22.7774 51.2203 23.387 51.3013 24.0579 51.3045 24.0844 51.3086 24.1108 51.3135 24.1371 51.5427 25.3553 51.9518 26.5326 52.5273 27.6304 53.0572 28.8574 53.7474 30.0089 54.5798 31.0546Z" fill="#000000" fill-rule="nonzero" fill-opacity="1" transform="matrix(1.01338 0 0 1 702 447)"/><text fill="#000000" fill-opacity="1" font-family="Helvetica Neue,Helvetica Neue_MSFontService,sans-serif" font-style="normal" font-variant="normal" font-weight="700" font-stretch="normal" font-size="5" text-anchor="start" direction="ltr" writing-mode="lr-tb" unicode-bidi="normal" text-decoration="none" transform="matrix(1 0 0 0.986799 702 560)">Created by Lonnie Tapscott</text><text fill="#000000" fill-opacity="1" font-family="Helvetica Neue,Helvetica Neue_MSFontService,sans-serif" font-style="normal" font-variant="normal" font-weight="700" font-stretch="normal" font-size="5" text-anchor="start" direction="ltr" writing-mode="lr-tb" unicode-bidi="normal" text-decoration="none" transform="matrix(1 0 0 0.986799 702 565)">from the Noun Project</text></g></g></g></g></g></svg>