<svg width="101" height="96" xmlns="http://www.w3.org/2000/svg" xmlns:xlink="http://www.w3.org/1999/xlink" xml:space="preserve" overflow="hidden"><defs><clipPath id="clip0"><rect x="476" y="328" width="101" height="96"/></clipPath><clipPath id="clip1"><rect x="476" y="328" width="101" height="96"/></clipPath><clipPath id="clip2"><rect x="477" y="329" width="100" height="94"/></clipPath><clipPath id="clip3"><rect x="477" y="329" width="100" height="94"/></clipPath></defs><g clip-path="url(#clip0)" transform="translate(-476 -328)"><g clip-path="url(#clip1)"><g clip-path="url(#clip2)"><g clip-path="url(#clip3)"><g><path d="M89.4829 67.9016 45.6691 6.83852C45.0323 5.95384 43.799 5.75282 42.9143 6.38954 42.6622 6.57097 42.4565 6.80932 42.3139 7.08522L12.9863 64.0038C12.6443 64.6704 12.7093 65.4731 13.154 66.0761L32.1302 91.9499C32.5008 92.4571 33.0907 92.7576 33.7189 92.7591 33.9686 92.7572 34.216 92.7104 34.4492 92.6209L88.6145 70.9114C89.6234 70.4987 90.1068 69.3464 89.6941 68.3375 89.6384 68.2012 89.5675 68.0715 89.4829 67.951ZM17.0618 64.7241 42.0475 16.223 33.2255 86.7791ZM35.0412 88.131 44.554 12.0488 84.8647 68.1582ZM65.4445 60.5006 63.0071 61.3098 65.2175 67.6352 60.7473 69.2733 58.7244 62.7604 49.3399 65.8886 48.1755 60.7868 52.3003 43.9224 56.5929 42.9356 61.5269 57.1949 63.9051 56.4646ZM57.4021 58.4481 54.1457 47.919 51.7477 60.1947Z" fill="#000000" fill-rule="nonzero" fill-opacity="1" transform="matrix(1.01338 0 0 1 477 329)"/><text fill="#000000" fill-opacity="1" font-family="Helvetica Neue,Helvetica Neue_MSFontService,sans-serif" font-style="normal" font-variant="normal" font-weight="700" font-stretch="normal" font-size="5" text-anchor="start" direction="ltr" writing-mode="lr-tb" unicode-bidi="normal" text-decoration="none" transform="matrix(1 0 0 0.986799 477 442)">Created by Lonnie Tapscott</text><text fill="#000000" fill-opacity="1" font-family="Helvetica Neue,Helvetica Neue_MSFontService,sans-serif" font-style="normal" font-variant="normal" font-weight="700" font-stretch="normal" font-size="5" text-anchor="start" direction="ltr" writing-mode="lr-tb" unicode-bidi="normal" text-decoration="none" transform="matrix(1 0 0 0.986799 477 447)">from the Noun Project</text></g></g></g></g></g></svg>