<svg width="101" height="96" xmlns="http://www.w3.org/2000/svg" xmlns:xlink="http://www.w3.org/1999/xlink" xml:space="preserve" overflow="hidden"><defs><clipPath id="clip0"><rect x="588" y="328" width="101" height="96"/></clipPath><clipPath id="clip1"><rect x="588" y="328" width="101" height="96"/></clipPath><clipPath id="clip2"><rect x="589" y="329" width="100" height="94"/></clipPath><clipPath id="clip3"><rect x="589" y="329" width="100" height="94"/></clipPath></defs><g clip-path="url(#clip0)" transform="translate(-588 -328)"><g clip-path="url(#clip1)"><g clip-path="url(#clip2)"><g clip-path="url(#clip3)"><g><path d="M84.9437 30.4329 48.6689 7.22337C47.967 6.7588 47.0478 6.7905 46.3796 7.30231L13.5784 31.9723C13.0674 32.3739 12.7869 33.0013 12.8284 33.6498L13.8152 63.2538C13.8374 63.8628 14.1397 64.4273 14.6342 64.7834L50.9188 90.8743C51.2547 91.1175 51.6587 91.2487 52.0734 91.2493 52.5594 91.2641 53.0338 91.0989 53.4056 90.7855L84.2233 62.642C84.6157 62.2835 84.847 61.7819 84.8647 61.2506L85.8515 32.1598C85.8745 31.4644 85.5295 30.8082 84.9437 30.4329ZM47.7019 11.2791 81.4603 32.89 52.0043 58.5468 17.3282 34.1531ZM17.7624 62.1683 16.894 36.2846 51.0866 60.2737 51.0866 86.1377ZM53.0898 85.7528 53.0898 60.1947 81.7958 35.209 80.9175 60.2835ZM46.8335 27.9363C46.4623 27.6652 46.027 27.4952 45.5704 27.4429 44.7181 27.307 43.8577 27.6339 43.3106 28.3014 42.383 29.3375 42.383 30.6302 43.3106 32.1894 44.1585 33.3905 45.153 34.4811 46.271 35.436 46.0579 34.6375 46.0579 33.7971 46.271 32.9986 46.5155 32.1993 46.9295 31.4622 47.4848 30.8375 48.6806 29.4189 50.4451 28.6054 52.3003 28.6172 54.3761 28.6408 56.3802 29.3796 57.9744 30.7092 59.7511 32.0304 61.0776 33.8669 61.7736 35.9688 62.4742 38.0806 62.0104 40.1923 60.3625 42.3041 58.6861 44.5692 55.7716 45.5433 53.07 44.7415 50.3014 43.9911 47.7488 42.5982 45.6197 40.6759 44.3992 39.6837 43.2362 38.6228 42.1363 37.4984 40.8574 36.1966 39.8333 34.667 39.1167 32.9887 38.6537 31.8344 38.4875 30.5825 38.6332 29.3474 38.8071 28.0878 39.3773 26.9161 40.2614 26.0022 41.3998 24.6457 43.0054 23.7654 44.7612 23.5352 46.4713 23.3721 48.1833 23.8272 49.5866 24.818ZM54.491 40.7647C55.4976 40.8609 56.4837 40.4367 57.1061 39.6397 57.7208 38.9154 57.898 37.9162 57.5699 37.0247 57.1771 35.9488 56.4686 35.0167 55.537 34.3505 54.6485 33.5295 53.507 33.0354 52.3003 32.9492 51.3769 32.9059 50.4863 33.2965 49.8926 34.0051 49.4198 34.5518 49.1697 35.2562 49.1919 35.9787 49.3287 37.3288 50.0499 38.5513 51.1655 39.3239 52.0834 40.1556 53.2552 40.6528 54.491 40.7351Z" fill="#000000" fill-rule="nonzero" fill-opacity="1" transform="matrix(1.01338 0 0 1 589 329)"/><text fill="#000000" fill-opacity="1" font-family="Helvetica Neue,Helvetica Neue_MSFontService,sans-serif" font-style="normal" font-variant="normal" font-weight="700" font-stretch="normal" font-size="5" text-anchor="start" direction="ltr" writing-mode="lr-tb" unicode-bidi="normal" text-decoration="none" transform="matrix(1 0 0 0.986799 589 442)">Created by Lonnie Tapscott</text><text fill="#000000" fill-opacity="1" font-family="Helvetica Neue,Helvetica Neue_MSFontService,sans-serif" font-style="normal" font-variant="normal" font-weight="700" font-stretch="normal" font-size="5" text-anchor="start" direction="ltr" writing-mode="lr-tb" unicode-bidi="normal" text-decoration="none" transform="matrix(1 0 0 0.986799 589 447)">from the Noun Project</text></g></g></g></g></g></svg>