<svg width="101" height="96" xmlns="http://www.w3.org/2000/svg" xmlns:xlink="http://www.w3.org/1999/xlink" xml:space="preserve" overflow="hidden"><defs><clipPath id="clip0"><rect x="701" y="328" width="101" height="96"/></clipPath><clipPath id="clip1"><rect x="701" y="328" width="101" height="96"/></clipPath><clipPath id="clip2"><rect x="702" y="329" width="100" height="94"/></clipPath><clipPath id="clip3"><rect x="702" y="329" width="100" height="94"/></clipPath></defs><g clip-path="url(#clip0)" transform="translate(-701 -328)"><g clip-path="url(#clip1)"><g clip-path="url(#clip2)"><g clip-path="url(#clip3)"><g><path d="M45.7579 35.2189C45.4944 34.1346 45.687 32.9896 46.2907 32.0512 45.0107 32.0889 43.7407 31.8146 42.5902 31.2519 41.7686 30.8219 41.0195 30.2658 40.3699 29.604 39.1964 28.486 38.6468 26.863 38.8996 25.2621 39.1496 23.6898 40.2943 22.3214 42.3337 21.157 44.1296 20.0405 46.2554 19.577 48.3531 19.8445 50.1948 20.0684 51.9011 20.9268 53.1786 22.2721 53.7546 22.9041 54.2095 23.6366 54.5206 24.4331 54.8555 25.3812 54.7656 26.4276 54.2739 27.3047 55.6843 27.2214 57.095 27.4611 58.3988 28.0054 59.6713 28.5312 60.8132 29.3295 61.744 30.3441 63.0846 31.6372 63.7295 33.4913 63.4808 35.3373 63.2045 37.1398 61.9282 38.6924 59.652 39.995 55.7865 42.4762 50.7002 41.8409 47.5637 38.4852 46.6783 37.5791 46.0543 36.4505 45.7579 35.2189ZM54.2739 37.4984C55.2496 37.6983 56.2648 37.5221 57.1159 37.005 57.915 36.6465 58.4714 35.8996 58.5863 35.0314 58.5719 34.0648 58.1531 33.1486 57.4317 32.5052 56.7136 31.6671 55.7448 31.0824 54.6687 30.8375 53.6968 30.6572 52.6926 30.8397 51.8464 31.3506 51.0534 31.7166 50.4998 32.4596 50.3761 33.3242 50.3831 34.3079 50.8105 35.2416 51.5504 35.8899 52.2645 36.7016 53.2184 37.2649 54.2739 37.4984ZM46.8137 29.0711C47.6544 29.2174 48.5195 29.0563 49.2511 28.6172 49.9529 28.3062 50.4476 27.6589 50.5636 26.9001 50.5816 26.1521 50.2758 25.4327 49.7248 24.9265 49.1412 24.2566 48.3546 23.7957 47.4848 23.6141 46.6323 23.4717 45.7569 23.6398 45.0178 24.0878 44.3264 24.4038 43.8328 25.0374 43.6955 25.7851 43.6659 26.5769 43.9916 27.3405 44.5836 27.8672 45.1645 28.4823 45.9301 28.8911 46.7644 29.0316ZM91.7723 26.3673C91.5299 25.8935 91.1065 25.5376 90.598 25.3805L27.2751 6.60169C26.2402 6.28625 25.1443 6.86283 24.818 7.89439L6.00961 69.3128C5.69417 70.3477 6.27075 71.4436 7.30231 71.7699L70.6745 91.5749C70.8649 91.6412 71.0651 91.6746 71.2666 91.6736 71.5877 91.6737 71.9034 91.5922 72.1843 91.4368 72.6582 91.1944 73.014 90.771 73.1711 90.2625L91.9203 27.8771C92.0741 27.3742 92.0208 26.8307 91.7723 26.3673ZM86.4337 28.3409 37.301 57.4317 28.2126 11.0028ZM26.9001 14.6244 35.4656 58.3692 10.5982 67.8128ZM12.4041 69.2338 36.3931 60.1257 65.3557 85.7824ZM69.9443 87.2133 38.2681 59.1487 87.0949 30.1862Z" fill="#000000" fill-rule="nonzero" fill-opacity="1" transform="matrix(1.01338 0 0 1 702 329)"/><text fill="#000000" fill-opacity="1" font-family="Helvetica Neue,Helvetica Neue_MSFontService,sans-serif" font-style="normal" font-variant="normal" font-weight="700" font-stretch="normal" font-size="5" text-anchor="start" direction="ltr" writing-mode="lr-tb" unicode-bidi="normal" text-decoration="none" transform="matrix(1 0 0 0.986799 702 442)">Created by Lonnie Tapscott</text><text fill="#000000" fill-opacity="1" font-family="Helvetica Neue,Helvetica Neue_MSFontService,sans-serif" font-style="normal" font-variant="normal" font-weight="700" font-stretch="normal" font-size="5" text-anchor="start" direction="ltr" writing-mode="lr-tb" unicode-bidi="normal" text-decoration="none" transform="matrix(1 0 0 0.986799 702 447)">from the Noun Project</text></g></g></g></g></g></svg>